/* XPM */
static char * mosaicode_xpm[] = {
"32 32 87 1",
" 	c None",
".	c #34338A",
"+	c #33338A",
"@	c #35348B",
"#	c #34348B",
"$	c #34338B",
"%	c #F3E13F",
"&	c #F4E33F",
"*	c #F5E23F",
"=	c #34328A",
"-	c #36358B",
";	c #36358C",
">	c #35348C",
",	c #34338C",
"'	c #F7E53F",
")	c #F4E240",
"!	c #F6E340",
"~	c #F6E33F",
"{	c #F8E53F",
"]	c #F5E241",
"^	c #F6E441",
"/	c #F6E33E",
"(	c #36348C",
"_	c #32318C",
":	c #FFF03A",
"<	c #F9E53F",
"[	c #F7E441",
"}	c #F7E440",
"|	c #F9E53E",
"1	c #F5E240",
"2	c #F6E440",
"3	c #F9E540",
"4	c #34348A",
"5	c #F5E33E",
"6	c #F6E341",
"7	c #FDE93E",
"8	c #35358C",
"9	c #F5E33F",
"0	c #FFEC3C",
"a	c #26278E",
"b	c #363489",
"c	c #F8E540",
"d	c #FFED3C",
"e	c #2B2C8D",
"f	c #353589",
"g	c #35338B",
"h	c #FAE63F",
"i	c #2F2F8C",
"j	c #353489",
"k	c #33338B",
"l	c #35348A",
"m	c #F4E140",
"n	c #F7E340",
"o	c #F7E43F",
"p	c #FBE63D",
"q	c #F4E241",
"r	c #FBE63E",
"s	c #31318E",
"t	c #FFF039",
"u	c #F9E63F",
"v	c #F7E33F",
"w	c #31308B",
"x	c #34338D",
"y	c #2D2C8F",
"z	c #F6E43F",
"A	c #F6E23F",
"B	c #F5E03F",
"C	c #2E2D8D",
"D	c #33328D",
"E	c #282890",
"F	c #FDEA3D",
"G	c #FFF139",
"H	c #2C2C8D",
"I	c #32328D",
"J	c #222391",
"K	c #FBE73F",
"L	c #FFF13A",
"M	c #363589",
"N	c #30308C",
"O	c #F8E43F",
"P	c #FFEF3A",
"Q	c #2B2A8E",
"R	c #33328A",
"S	c #34348C",
"T	c #363389",
"U	c #33328B",
"V	c #35338A",
"                                ",
"                                ",
"                                ",
"          ..+                   ",
"        +@@@#$    %&*       =   ",
"        @@-;>,   ')!!!~         ",
"       .@;;;>,   {]^^!!/        ",
"       $(;;@$_  :<]^[[}!        ",
"       $>;>      |12}[[}        ",
"       $>@$         ![[3        ",
"       $>@4         5!67        ",
"       $>8#         9!60  ab    ",
"       +@;@$        }[cd  ef    ",
"        @8;g        }[h   ij    ",
"        k@>>$      ~2!{    l    ",
"         $@>@$     ~2!m         ",
"          @@>$    *!}n          ",
"          $@>@    )2}o    l     ",
"           @;-   pq6}     .     ",
"           @>>   r]6}     +     ",
"           @>s  tu]!v     w     ",
"       =$$#8xy  0c]2zAB   C     ",
"       $>@>;DE  F6]22!1G  Hf    ",
"       >;(;8IJ  K]62}66L  HM   =",
"       @@@@@N   O]2}}2!P  Q    $",
"        .$$R    A1zzz9*       $g",
"                             $$S",
"                            .#$$",
"                          ..$k  ",
"                      Tl4$UUR   ",
"                  l44VV@#       ",
"                                "};
